<?xml version="1.0" encoding="utf-8"?>
<!-- Generator: Adobe Illustrator 19.1.0, SVG Export Plug-In . SVG Version: 6.00 Build 0)  -->
<svg version="1.1" id="Layer_1" xmlns="http://www.w3.org/2000/svg" xmlns:xlink="http://www.w3.org/1999/xlink" x="0px" y="0px"
	 viewBox="0 0 133 32" style="enable-background:new 0 0 133 32;" xml:space="preserve">
<style type="text/css">
	.st0{fill:#E48125;}
	.st1{fill:#414042;}
</style>
<path class="st0" d="M133,14.2c0-2.2-1.6-4.1-4-4.1l-8,1.4c0.7-0.7,3-3.7,3.6-4.3c1.6-1.7,1.7-4.3,0.1-5.8c-0.8-0.8-1.8-1.2-2.9-1.2
	c-1.1,0-2.2,0.4-3,1.3c0,0-2.8,2.7-5.4,5.2c-1.6,1.3-5.3,3.4-6.4,3.5h-2V28h1.9c0.8,0,2.2,0.8,3.5,1.5c2.2,1.2,4.5,2.5,7.2,2.5
	c0.3,0,6.9,0,6.9,0c2.1,0,4.3-1.3,4.3-3.3c0-0.3-0.2-0.9-0.3-1.2c1.2-0.8,2-2.1,2-3.7c0-0.4-0.1-0.9-0.2-1.3
	c1.3-0.8,2.1-2.1,2.1-3.7c0-0.7-0.2-1.3-0.5-1.9C132.9,16.2,133,15.3,133,14.2L133,14.2z M131,14.2c0,1.2-0.7,2.2-1.9,2.2h-0.8
	c1.4,0,2.2,1,2.2,2.4c0,1.4-0.8,2.3-2.2,2.3h-1.9c1.4,0,2.8,1,2.5,2.8c-0.2,1.4-0.8,2.2-2.2,2.2H125c1.1,0,2,1.3,2,2.3
	c0,1-0.9,1.7-2,1.7h-7c-4.1,0-8.2-3.9-10.9-3.9v-14c2.1,0,6.1-2.7,8.8-4.9l4.4-4.4c0.5-0.4,1.1-0.7,1.6-0.7s1.1,0.2,1.5,0.6
	c0.8,0.8,0.8,2.2-0.1,3.1c0,0-6.4,8.3-6.2,8.3l11.9-2C130.3,12.1,131,13,131,14.2L131,14.2z"/>
<g>
	<path class="st1" d="M5.5,23.9h8.8v4.4H0V4.6h5.5V23.9z"/>
	<path class="st1" d="M29.9,24.3c0.8,0,1.4-0.1,2-0.2c0.6-0.1,1.1-0.3,1.7-0.5V20h-2.3c-0.3,0-0.6-0.1-0.8-0.3
		c-0.2-0.2-0.3-0.4-0.3-0.7v-3h8.4v10c-0.6,0.4-1.2,0.8-1.9,1.1c-0.7,0.3-1.4,0.6-2.1,0.8c-0.7,0.2-1.5,0.4-2.4,0.5
		c-0.8,0.1-1.7,0.1-2.7,0.1c-1.7,0-3.3-0.3-4.8-0.9c-1.5-0.6-2.7-1.5-3.8-2.5c-1.1-1.1-1.9-2.4-2.5-3.8c-0.6-1.5-0.9-3.1-0.9-4.8
		c0-1.8,0.3-3.4,0.9-4.9c0.6-1.5,1.4-2.7,2.5-3.8c1.1-1.1,2.4-1.9,3.9-2.5c1.5-0.6,3.3-0.9,5.2-0.9c1,0,1.9,0.1,2.8,0.2
		s1.7,0.4,2.4,0.7s1.4,0.6,2,1c0.6,0.4,1.1,0.8,1.6,1.3l-1.6,2.4c-0.2,0.2-0.3,0.4-0.5,0.5c-0.2,0.1-0.4,0.2-0.7,0.2
		c-0.3,0-0.7-0.1-1-0.3c-0.4-0.3-0.8-0.5-1.2-0.7c-0.4-0.2-0.8-0.3-1.2-0.5C32.1,9.1,31.6,9,31.2,9c-0.4-0.1-0.9-0.1-1.5-0.1
		c-1,0-2,0.2-2.8,0.5c-0.8,0.4-1.5,0.9-2.1,1.5c-0.6,0.7-1,1.5-1.3,2.4s-0.5,2-0.5,3.1c0,1.3,0.2,2.4,0.5,3.3c0.3,1,0.8,1.8,1.4,2.5
		c0.6,0.7,1.3,1.2,2.2,1.5C28,24.1,28.9,24.3,29.9,24.3z"/>
	<path class="st1" d="M62.9,4.6V9h-6.6v19.3h-5.5V9h-6.6V4.6H62.9z"/>
	<path class="st1" d="M81.8,18.7c0.2,0.4,0.4,0.9,0.6,1.4c0.2-0.5,0.4-0.9,0.6-1.4c0.2-0.4,0.4-0.9,0.6-1.3l6.1-11.9
		C89.7,5.2,89.8,5.1,90,5c0.1-0.1,0.2-0.2,0.4-0.3c0.1-0.1,0.3-0.1,0.5-0.1c0.2,0,0.4,0,0.6,0h4.2v23.6h-4.8V14.6
		c0-0.7,0-1.4,0.1-2.1l-6.3,12.1c-0.2,0.4-0.5,0.7-0.8,0.9s-0.7,0.3-1.1,0.3H82c-0.4,0-0.8-0.1-1.1-0.3c-0.3-0.2-0.6-0.5-0.8-0.9
		l-6.3-12.2c0,0.4,0.1,0.8,0.1,1.1c0,0.4,0,0.7,0,1v13.6h-4.8V4.6h4.2c0.2,0,0.4,0,0.6,0c0.2,0,0.3,0,0.5,0.1
		c0.1,0.1,0.3,0.1,0.4,0.3c0.1,0.1,0.2,0.3,0.3,0.5l6.1,12C81.4,17.8,81.6,18.3,81.8,18.7z"/>
</g>
</svg>
